<?xml version="1.0" encoding="UTF-8" standalone="no"?>
<!-- Created with Inkscape (http://www.inkscape.org/) -->

<svg
   width="229.00101mm"
   height="229.00101mm"
   viewBox="0 0 229.00101 229.00101"
   version="1.1"
   id="svg1"
   xml:space="preserve"
   inkscape:version="1.3.2 (091e20e, 2023-11-25, custom)"
   sodipodi:docname="pokebola.svg"
   xmlns:inkscape="http://www.inkscape.org/namespaces/inkscape"
   xmlns:sodipodi="http://sodipodi.sourceforge.net/DTD/sodipodi-0.dtd"
   xmlns="http://www.w3.org/2000/svg"
   xmlns:svg="http://www.w3.org/2000/svg"><sodipodi:namedview
     id="namedview1"
     pagecolor="#ffffff"
     bordercolor="#000000"
     borderopacity="0.25"
     inkscape:showpageshadow="2"
     inkscape:pageopacity="0.0"
     inkscape:pagecheckerboard="true"
     inkscape:deskcolor="#d1d1d1"
     inkscape:document-units="mm"
     inkscape:zoom="0.73139029"
     inkscape:cx="166.8056"
     inkscape:cy="425.9012"
     inkscape:window-width="1920"
     inkscape:window-height="1017"
     inkscape:window-x="-8"
     inkscape:window-y="-8"
     inkscape:window-maximized="1"
     inkscape:current-layer="layer1"
     showguides="true"><sodipodi:guide
       position="108.71468,72.219695"
       orientation="1,0"
       id="guide7"
       inkscape:locked="false" /><sodipodi:guide
       position="147.95759,77.873189"
       orientation="0,-1"
       id="guide8"
       inkscape:locked="false" /></sodipodi:namedview><defs
     id="defs1" /><g
     inkscape:label="Camada 1"
     inkscape:groupmode="layer"
     id="layer1"><path
       style="fill:#000000;fill-opacity:0.283871;stroke-width:0.424141"
       id="path6"
       sodipodi:type="arc"
       sodipodi:cx="-113.67709"
       sodipodi:cy="117.38358"
       sodipodi:rx="24.962343"
       sodipodi:ry="24.962343"
       sodipodi:start="0"
       sodipodi:end="6.2810068"
       sodipodi:arc-type="slice"
       d="m -88.71475,117.38358 a 24.962343,24.962343 0 0 1 -24.94875,24.96234 24.962343,24.962343 0 0 1 -24.97592,-24.93515 24.962343,24.962343 0 0 1 24.92154,-24.989497 24.962343,24.962343 0 0 1 25.00307,24.907927 l -24.96228,0.0544 z"
       transform="scale(-1,1)" /></g><g
     inkscape:groupmode="layer"
     id="layer2"
     inkscape:label="Camada 2"><path
       style="fill:#000000;fill-opacity:0.283871;stroke-width:0.424141"
       d="m 149.71885,123.20519 76.29683,0.0144 c 0,0 -1.5972,44.57794 -35.64484,74.16106 -12.96895,11.26839 -41.77559,30.79703 -77.15142,29.99831 C 58.23539,226.1375 35.41597,198.01154 21.18857,177.87287 4.5018299,154.25305 2.5971199,123.46028 2.5971199,123.46028 l 73.5095401,-0.257 c 0,0 6.04525,29.92682 37.18827,30.13488 30.33663,0.20267 36.44205,-30.15046 36.44205,-30.15046 z"
       id="path3"
       sodipodi:nodetypes="ccsssccscc" /><path
       style="fill:#000000;fill-opacity:0.283871;stroke-width:0.424141"
       d="M 76.13626,109.73595 2.2155599,109.60786 c 0,0 -0.34421,-41.92198 31.8081001,-73.34095 C 51.61991,19.07198 78.82097,2.2743299 113.5451,3.2467999 221.79769,6.2784599 225.72573,109.47482 225.72573,109.47482 l -75.87456,0.51981 c 0,0 -5.15154,-30.01971 -37.15534,-31.21269 -8.18683,-0.30516 -18.14651,4.44135 -19.76575,5.61618 -15.51765,11.2588 -16.79382,25.44041 -16.79382,25.44041 z"
       id="path4"
       sodipodi:nodetypes="ccssccsscc" /></g></svg>
